<?xml version="1.0" encoding="utf-8"?>
<!-- Generator: Adobe Illustrator 17.0.0, SVG Export Plug-In . SVG Version: 6.00 Build 0)  -->
<!DOCTYPE svg PUBLIC "-//W3C//DTD SVG 1.1//EN" "http://www.w3.org/Graphics/SVG/1.1/DTD/svg11.dtd">
<svg version="1.1" id="Capa_1" xmlns="http://www.w3.org/2000/svg" xmlns:xlink="http://www.w3.org/1999/xlink" x="0px" y="0px"
	 width="1920px" height="1080px" viewBox="0 0 1920 1080" enable-background="new 0 0 1920 1080" xml:space="preserve">
<g>
	<path fill="#383838" d="M425.662,877.529h-16.331v39.95h8.793v-11.991h6.682c8.96,0,16.15-4.793,16.15-14.039v-0.125
		C440.955,883.166,435.193,877.529,425.662,877.529 M432.051,891.617c0,3.421-2.564,6.048-6.96,6.048h-6.967v-12.213h6.793
		c4.396,0,7.134,2.111,7.134,6.048V891.617z"/>
	<path fill="#383838" d="M474.349,877.237l-17.132,40.243h8.967l3.658-8.96h16.895l3.651,8.96h9.19l-17.125-40.243H474.349z
		 M472.976,900.758l5.316-12.952l5.302,12.952H472.976z"/>
	<path fill="#383838" d="M556.269,890.83v-0.125c0-3.762-1.198-6.897-3.428-9.141c-2.62-2.627-6.556-4.048-11.642-4.048h-18.268
		v39.964h8.793v-12.785h6.786h0.118l8.57,12.785h10.27l-9.761-14.276C552.785,901.322,556.269,897.274,556.269,890.83
		 M547.365,891.276c0,3.365-2.459,5.657-6.737,5.657h-8.904v-11.475h8.737c4.278,0,6.904,1.937,6.904,5.706L547.365,891.276
		L547.365,891.276z"/>
	<path fill="#383838" d="M595.083,877.237l-17.132,40.243h8.967l3.658-8.96h16.895l3.651,8.96h9.19l-17.125-40.243H595.083z
		 M593.711,900.758l5.316-12.952l5.302,12.952H593.711z"/>
	<path fill="#383838" d="M677.011,890.83v-0.125c0-3.762-1.198-6.897-3.428-9.141c-2.62-2.627-6.556-4.048-11.642-4.048h-18.268
		v39.964h8.793v-12.785h6.786h0.118l8.57,12.785h10.27l-9.761-14.276C673.527,901.322,677.011,897.274,677.011,890.83
		 M668.107,891.276c0,3.365-2.459,5.657-6.737,5.657h-8.904v-11.475h8.737c4.278,0,6.904,1.937,6.904,5.706L668.107,891.276
		L668.107,891.276z"/>
	<polygon fill="#383838" points="756.395,894.418 745.889,877.522 736.413,877.522 736.413,917.486 745.032,917.486 
		745.032,891.568 756.158,908.464 756.395,908.464 767.633,891.387 767.633,917.486 776.37,917.486 776.37,877.522 766.888,877.522 
			"/>
	<path fill="#383838" d="M816.85,877.237l-17.133,40.243h8.967l3.651-8.96h16.902l3.644,8.96h9.19l-17.125-40.243H816.85z
		 M815.477,900.758l5.316-12.952l5.309,12.952H815.477z"/>
	<polygon fill="#383838" points="823.699,864.271 817.247,874.38 823.873,874.38 831.181,867.531 	"/>
	<path fill="#383838" d="M881.652,893.554c-6.911-1.77-8.618-2.627-8.618-5.253v-0.111c0-1.944,1.777-3.484,5.135-3.484
		c3.365,0,6.849,1.484,10.388,3.944l4.564-6.626c-4.048-3.261-9.009-5.079-14.833-5.079c-8.173,0-13.997,4.793-13.997,12.046v0.111
		c0,7.936,5.198,10.158,13.245,12.213c6.675,1.714,8.047,2.857,8.047,5.086v0.111c0,2.341-2.174,3.769-5.769,3.769
		c-4.563,0-8.333-1.881-11.928-4.849l-5.198,6.229c4.793,4.271,10.904,6.396,16.958,6.396c8.618,0,14.666-4.466,14.666-12.395
		v-0.111C894.318,898.591,889.755,895.679,881.652,893.554"/>
	<rect x="909.319" y="908.345" fill="#383838" width="9.245" height="9.141"/>
	<path fill="#383838" d="M985.993,893.554c-6.911-1.77-8.618-2.627-8.618-5.253v-0.111c0-1.944,1.777-3.484,5.135-3.484
		c3.365,0,6.849,1.484,10.388,3.944l4.563-6.626c-4.048-3.261-9.009-5.079-14.833-5.079c-8.173,0-13.997,4.793-13.997,12.046v0.111
		c0,7.936,5.198,10.158,13.245,12.213c6.675,1.714,8.047,2.857,8.047,5.086v0.111c0,2.341-2.174,3.769-5.769,3.769
		c-4.564,0-8.333-1.881-11.928-4.849l-5.198,6.229c4.793,4.271,10.904,6.396,16.958,6.396c8.618,0,14.666-4.466,14.666-12.395
		v-0.111C998.659,898.591,994.096,895.679,985.993,893.554"/>
	<polygon fill="#383838" points="1032.22,901.267 1051.06,901.267 1051.06,893.449 1032.22,893.449 1032.22,885.34 1053.631,885.34 
		1053.631,877.529 1023.49,877.529 1023.49,917.479 1053.916,917.479 1053.916,909.655 1032.22,909.655 	"/>
	<polygon fill="#383838" points="1105.745,902.124 1087.025,877.529 1078.922,877.529 1078.922,917.479 1087.603,917.479 
		1087.603,892.084 1106.951,917.479 1114.426,917.479 1114.426,877.529 1105.745,877.529 	"/>
	<polygon fill="#383838" points="1138.345,885.625 1150.503,885.625 1150.503,917.479 1159.302,917.479 1159.302,885.625 
		1171.46,885.625 1171.46,877.522 1138.345,877.522 	"/>
	<rect x="1195.776" y="877.529" fill="#383838" width="8.793" height="39.95"/>
	<path fill="#383838" d="M1265.051,890.83v-0.125c0-3.762-1.198-6.897-3.421-9.141c-2.627-2.627-6.563-4.048-11.649-4.048h-18.268
		v39.964h8.793v-12.785h6.793h0.119l8.57,12.785h10.27l-9.761-14.276C1261.567,901.322,1265.051,897.274,1265.051,890.83
		 M1256.147,891.276c0,3.365-2.459,5.657-6.737,5.657h-8.904v-11.475h8.737c4.278,0,6.905,1.937,6.905,5.706L1256.147,891.276
		L1256.147,891.276z"/>
	<polygon fill="#383838" points="1344.435,894.418 1333.929,877.522 1324.453,877.522 1324.453,917.486 1333.072,917.486 
		1333.072,891.568 1344.205,908.464 1344.435,908.464 1355.673,891.387 1355.673,917.486 1364.41,917.486 1364.41,877.522 
		1354.935,877.522 	"/>
	<polygon fill="#383838" points="1411.745,864.271 1405.294,874.38 1411.92,874.38 1419.228,867.531 	"/>
	<path fill="#383838" d="M1404.904,877.237l-17.132,40.243h8.967l3.651-8.96h16.895l3.651,8.96h9.19l-17.125-40.243H1404.904z
		 M1403.524,900.758l5.316-12.952l5.309,12.952H1403.524z"/>
	<path fill="#383838" d="M1469.692,893.554c-6.911-1.77-8.618-2.627-8.618-5.253v-0.111c0-1.944,1.777-3.484,5.135-3.484
		c3.365,0,6.849,1.484,10.388,3.944l4.564-6.626c-4.048-3.261-9.009-5.079-14.833-5.079c-8.172,0-13.997,4.793-13.997,12.046v0.111
		c0,7.936,5.197,10.158,13.245,12.213c6.675,1.714,8.047,2.857,8.047,5.086v0.111c0,2.341-2.174,3.769-5.769,3.769
		c-4.564,0-8.333-1.881-11.928-4.849l-5.197,6.229c4.793,4.271,10.904,6.396,16.958,6.396c8.618,0,14.666-4.466,14.666-12.395
		v-0.111C1482.365,898.591,1477.802,895.679,1469.692,893.554"/>
	<rect x="1497.365" y="908.345" fill="#383838" width="9.246" height="9.141"/>
	<path fill="#383838" d="M1133.468,496.506l-10.13,10.137l-5.567-5.574v-7.741h15.697v-17.808h-15.697v-36.508l15.697-15.697V398.13
		l-15.697,15.697v-36.668h-25.577l-5.462-5.469l7.803-7.803l12.597-12.597l-12.597-12.59l-7.803-7.81l5.462-5.462h25.577v-36.668
		l15.697,15.697v-25.186l-15.697-15.697v-36.508h15.697v-17.808h-15.697v-7.748l5.567-5.567l10.13,10.13v-22.727h-22.72
		l-10.785,10.792v15.119h-15.154l-10.674,10.674l-10.681-10.674h-15.147v-15.119l-10.792-10.792h-25.173l-25.897,25.911h-62.148
		l-25.897-25.911h-25.186l-10.785,10.792v15.119h-15.147l-10.674,10.674l-10.674-10.674h-15.154v-15.119l-10.785-10.792h-22.713
		v22.727l10.13-10.13l5.567,5.567v7.748h-15.697v17.808h15.697v36.508l-15.697,15.69v25.186l15.697-15.69v36.668h25.577l5.462,5.462
		l-7.803,7.81l-12.597,12.59l12.597,12.597l7.803,7.803l-5.462,5.469H792.98v36.668l-15.697-15.697v25.186l15.697,15.697v36.508
		h-15.697v17.808h15.697v7.741l-5.567,5.574l-10.13-10.13v22.72h22.72l10.785-10.785v-15.119h15.154l10.674-10.681l10.674,10.681
		h15.147v15.119l10.785,10.785h25.186l25.897-25.904h62.148l25.89,25.904h25.186l10.785-10.785v-15.119h15.154l10.674-10.681
		l10.674,10.681h15.154v15.119l10.778,10.785h22.727v-22.727H1133.468z M1086.732,232.526l5.462-5.462h7.768v18.7L1086.732,232.526z
		 M1048.308,227.063h7.768l5.462,5.462h-0.007h0.007l-13.231,13.238V227.063z M1048.308,270.943l25.828-25.82l25.827,25.82v36.675
		h-15.154l-10.674,10.681l-10.681-10.681h-15.147V270.943z M1081.938,351.289l-7.803,7.81l-7.803-7.81l7.803-7.803L1081.938,351.289
		z M1024.933,195.941l5.567,5.567v7.748h-18.874L1024.933,195.941z M993.824,227.063h36.675v36.508l-31.464,31.464V258.43h-25.563
		l-5.504-5.504L993.824,227.063z M942.782,351.289l-13.259,13.259v-4.355v-17.808v-4.354L942.782,351.289z M955.365,363.885
		l25.855,25.848v36.606h-15.133l-10.723,10.723l-10.709-10.723h-15.14v-36.606L955.365,363.885z M967.969,351.289L967.969,351.289
		l13.252-13.259v4.354v17.808v4.355L967.969,351.289z M955.365,338.699l-25.848-25.848v-36.613h15.14l10.709-10.723l10.723,10.723
		h15.133v36.606L955.365,338.699z M968.631,227.063l-13.266,13.266l-13.252-13.266H968.631z M880.244,201.508l5.574-5.567
		l13.307,13.314h-18.881V201.508z M880.244,227.063h36.682l25.855,25.862l-5.504,5.504h-25.563v36.606l-31.471-31.464V227.063z
		 M849.206,232.526l5.462-5.462h7.762v18.7L849.206,232.526z M810.781,227.063h7.768l5.462,5.462l-13.231,13.238V227.063z
		 M810.781,307.618V270.95l25.827-25.827l25.82,25.82v36.675h-15.147l-10.674,10.681l-10.674-10.681H810.781z M844.412,351.289
		l-7.803,7.81l-7.81-7.81l7.81-7.803L844.412,351.289z M818.55,475.521h-7.768v-18.7l13.231,13.231v0.007L818.55,475.521z
		 M862.429,475.521h-7.762l-5.462-5.462v-0.007l13.224-13.231V475.521z M862.429,431.635l-25.82,25.827l-25.827-25.827v-36.668
		h15.154l10.674-10.681l10.674,10.681h15.147L862.429,431.635L862.429,431.635z M854.668,377.158l-5.462-5.469l7.803-7.803
		l12.597-12.597l-12.597-12.59l-7.803-7.81l5.462-5.462h25.577v-36.668l31.471,31.464v22.163v17.808v22.163l-31.471,31.471v-36.668
		L854.668,377.158L854.668,377.158z M885.818,506.644l-5.574-5.574v-7.741h18.881L885.818,506.644z M916.927,475.521h-36.682
		v-36.508l31.471-31.471v36.606h25.563l5.504,5.511L916.927,475.521z M942.106,475.521l13.259-13.273l13.266,13.273H942.106z
		 M1030.492,501.07l-5.567,5.574l-13.307-13.314h18.874V501.07z M1030.492,475.521h-36.675l-25.855-25.862l5.504-5.511h25.563
		v-36.606l31.464,31.471V475.521z M1030.492,377.158v36.668l-31.464-31.471v-22.163v-17.808v-22.163l31.464-31.464v36.668h25.577
		l5.469,5.462l-7.81,7.81l-12.59,12.59l12.59,12.597l7.81,7.803l-5.469,5.469L1030.492,377.158L1030.492,377.158z M1056.076,475.521
		h-7.768v-18.7l13.231,13.231l-0.007,0.007h0.007L1056.076,475.521z M1099.963,475.521h-7.768l-5.462-5.462v-0.007l13.231-13.231
		V475.521z M1099.963,431.635l-25.827,25.827l-25.828-25.827v-36.668h15.147l10.681-10.681l10.674,10.681h15.154V431.635z"/>
	<polygon fill="#383838" points="1199.991,673.899 1167.433,673.899 1167.433,637.983 1136.847,637.983 1136.847,816.079 
		1167.433,816.079 1167.433,700.541 1199.991,700.541 1199.991,816.079 1230.57,816.079 1230.57,637.983 1199.991,637.983 	"/>
	<polygon fill="#383838" points="1087.498,637.983 1056.905,637.983 1056.905,816.079 1113.925,816.079 1113.925,789.436 
		1087.498,789.436 	"/>
	<polygon fill="#383838" points="1438.632,732.904 1438.151,732.904 1419.486,637.983 1372.388,637.983 1372.388,816.079 
		1402.869,816.079 1402.869,683.068 1403.364,683.068 1425.108,789.436 1451.584,789.436 1473.419,683.068 1473.914,683.068 
		1473.914,816.079 1504.5,816.079 1504.5,637.983 1457.283,637.983 	"/>
	<path fill="#383838" d="M967.899,789.429h36.202l4.104,26.643h29.597l-32.809-178.096h-37.985l-32.809,178.096h29.604
		L967.899,789.429z M985.756,685.715h0.481l13.76,77.078h-28.001L985.756,685.715z"/>
	<path fill="#383838" d="M1283.375,789.429h36.202l4.104,26.643h29.597l-32.809-178.096h-37.985l-32.809,178.096h29.604
		L1283.375,789.429z M1301.239,685.715h0.488l13.753,77.078h-27.994L1301.239,685.715z"/>
	<path fill="#383838" d="M1821.654,789.429h36.195l4.111,26.643h29.59l-32.808-178.096h-37.978l-32.809,178.096h29.604
		L1821.654,789.429z M1839.511,685.715h0.488l13.753,77.078h-27.994L1839.511,685.715z"/>
	<path fill="#383838" d="M1768.85,679.417c0-7.734-0.725-13.795-2.348-18.707c-4.703-16.241-17.432-22.734-46.179-22.734h-52.101
		v178.096h30.593v-89.995h23.292l13.398,89.995h31.116l-14.729-97.834c2.717-1.296,5.044-2.836,7.016-4.668
		c7.099-6.006,9.949-14.847,9.949-30.224v-3.93H1768.85z M1717.899,699.433h-19.083v-34.808h19.083
		c16.923,0,22.845,5.079,22.845,17.404C1740.744,694.354,1734.822,699.433,1717.899,699.433"/>
	<path fill="#383838" d="M1625.019,712.671l0.739-0.662c7.107-5.999,9.956-14.826,9.956-30.175v-4.006
		c0-11.712-2.195-19.418-5.825-25.298c-5.839-10.005-20.184-13.872-36.069-14.548h-58.734v178.096h57.514
		c44.799,0,49.063-17.16,49.063-57.521C1641.67,738.931,1640.737,719.778,1625.019,712.671 M1565.568,664.611h20.177
		c17.725,0.021,21.438,3.839,21.842,16.575c0,9.831-2.125,18.24-21.995,18.24h-20.024V664.611z M1610.973,770.659
		c0,6.138-1.749,12.708-7.789,15.83c-6.41,3.323-14.283,2.94-21.292,2.94h-16.059v-63.36h16.059c7.009,0,14.882-0.369,21.292,2.94
		c6.041,3.128,7.789,9.705,7.789,15.837V770.659z"/>
	<path fill="#383838" d="M710.265,789.429h36.202l4.097,26.643h29.597l-32.802-178.096h-37.985l-32.809,178.096h29.604
		L710.265,789.429z M728.122,685.715h0.488l13.753,77.078h-27.994L728.122,685.715z"/>
	<polygon fill="#383838" points="215.802,789.436 164.51,789.436 164.51,726.076 203.986,726.076 203.986,699.433 164.51,699.433 
		164.51,664.625 215.802,664.625 215.802,637.983 133.91,637.983 133.917,816.079 215.802,816.079 	"/>
	<polygon fill="#383838" points="562.874,789.436 508.133,789.436 508.133,726.076 547.609,726.076 547.609,699.433 
		508.133,699.433 508.133,664.625 559.425,664.625 559.425,637.983 477.533,637.983 477.54,816.079 562.874,816.079 	"/>
	<path fill="#383838" d="M71.267,818.838c29.067,0,42.138-18.77,43.538-42.2H84.24c-0.585,9.831-2.85,16.61-13.036,16.61
		c-12.332,0-16.22-7.462-16.22-20.783v-90.86c0-13.321,4.097-20.637,16.436-20.637c6.71,0,11.907,6.925,12.659,16.289h30.656
		c-2.383-23.459-15.579-42.033-43.469-42.033c-32.07,0-46.868,20.477-46.868,45.642v92.343
		C24.399,798.354,39.197,818.838,71.267,818.838"/>
	<polygon fill="#383838" points="670.085,637.983 578.481,637.983 578.481,664.625 628.47,664.625 572.182,816.079 663.794,816.079 
		663.794,789.436 614.062,789.436 	"/>
	<polygon fill="#383838" points="406.377,768.332 406.864,768.332 428.818,637.983 458.422,637.983 425.613,816.072 
		387.628,816.072 354.826,637.983 384.416,637.983 	"/>
	<path fill="#383838" d="M339.345,679.417c0-7.734-0.732-13.795-2.348-18.707c-4.703-16.241-17.432-22.734-46.179-22.734h-52.094
		v178.096h30.586v-89.995h23.291L306,816.072h31.116l-14.736-97.834c2.717-1.296,5.044-2.836,7.016-4.668
		c7.1-6.006,9.949-14.847,9.949-30.224L339.345,679.417L339.345,679.417z M288.394,699.433H269.31v-34.808h19.083
		c16.923,0,22.852,5.079,22.852,17.404C311.246,694.354,305.317,699.433,288.394,699.433"/>
	<path fill="#383838" d="M851.944,640.17c-18.958-7.984-40.744-7.49-54.156,10.346c-13.266,17.634-6.8,36.668-2.85,46.409
		c5.232,12.917,26.176,48.791,31.29,58.134c5.434,9.935,11.559,26.845-2.292,34.153c-9.817,5.184-19.891,1.616-24.734-0.871
		l-9.719,27.144c19.689,6.034,40.563,4.229,54.769-7.831c11.489-9.761,17.348-21.954,15.774-40.305
		c-0.662-7.657-4.571-19.083-7.225-24.761c-4.48-9.573-24.72-45.621-30.607-57.521c-5.26-10.639-3.135-16.192-0.056-19.418
		c3.595-3.762,11.837-3.511,19.731-1.024L851.944,640.17z"/>
</g>
</svg>
